<svg xmlns="http://www.w3.org/2000/svg" viewBox="0 0 500 500"><defs><style>.a{fill:#80deea;}.b{fill:#b2ebf2;}.c,.o,.p,.r,.t{fill:none;}.c{stroke:#b2ebf2;stroke-width:0.75px;}.c,.n,.o,.p,.r,.t{stroke-miterlimit:10;}.d{fill:#f6ba99;}.e{fill:#da5955;}.f{fill:#decbb6;}.g{fill:#393762;}.h{fill:#7a7996;}.i{fill:#5c5b7e;}.j{fill:#f6ab84;}.k{fill:#8a89a2;}.l{fill:#b2b1c2;}.m{fill:#787794;}.n{fill:#fff;}.n,.r{stroke:#393762;}.o{stroke:#aaa9bb;}.p,.t{stroke:#fff;}.q{fill:#ae5955;}.r{stroke-linecap:round;}.s{fill:#53ad61;}.t{stroke-width:0.5px;}</style></defs><title>vr</title><rect class="a" width="500" height="500"/><polygon class="b" points="343.64 196.77 297.17 225.52 268.42 271.99 221.95 300.73 193.21 347.2 153.54 371.74 163.93 382.13 203.6 357.59 232.34 311.12 278.81 282.38 307.56 235.91 354.03 207.16 377.63 169 367.25 158.61 343.64 196.77"/><polygon class="b" points="324.65 177.78 278.18 206.53 249.43 253 202.96 281.74 174.22 328.21 134.55 352.75 144.94 363.13 184.61 338.6 213.35 292.13 259.82 263.38 288.56 216.91 335.04 188.17 358.64 150 348.25 139.62 324.65 177.78"/><polygon class="b" points="305.66 158.79 259.19 187.53 230.44 234 183.97 262.75 155.23 309.22 115.56 333.75 125.95 344.14 165.62 319.61 194.36 273.14 240.83 244.39 269.57 197.92 316.05 169.18 339.65 131.01 329.26 120.63 305.66 158.79"/><polygon class="b" points="362.63 215.76 316.16 244.51 287.41 290.98 240.94 319.72 212.2 366.19 172.53 390.73 182.92 401.12 222.59 376.58 251.33 330.11 297.8 301.37 326.55 254.9 373.02 226.15 396.63 187.99 386.24 177.6 362.63 215.76"/><polygon class="b" points="270.32 349.1 316.79 320.36 345.54 273.89 392.01 245.14 415.62 206.98 405.23 196.59 381.62 234.75 335.15 263.5 306.4 309.97 259.94 338.71 231.19 385.18 191.52 409.72 201.91 420.11 241.58 395.57 270.32 349.1"/><polygon class="b" points="289.31 368.09 335.78 339.35 364.53 292.88 411 264.13 434.61 225.97 424.22 215.58 400.61 253.74 354.14 282.49 325.4 328.96 278.93 357.7 250.18 404.17 210.51 428.71 220.9 439.1 260.57 414.56 289.31 368.09"/><polygon class="b" points="286.67 139.79 240.19 168.54 211.45 215.01 164.98 243.76 136.24 290.23 96.57 314.76 106.95 325.15 146.62 300.61 175.37 254.15 221.84 225.4 250.58 178.93 297.06 150.18 320.66 112.02 310.27 101.64 286.67 139.79"/><polygon class="b" points="443.21 234.57 419.61 272.73 373.13 301.48 344.39 347.95 297.92 376.7 269.17 423.16 229.51 447.7 239.89 458.09 279.56 433.55 308.31 387.08 354.77 358.34 383.52 311.87 429.99 283.12 453.6 244.96 443.21 234.57"/><polygon class="b" points="49.98 268.18 89.65 243.64 118.39 197.17 164.86 168.43 193.61 121.96 240.08 93.21 263.69 55.05 253.3 44.66 229.69 82.82 183.22 111.57 154.47 158.04 108 186.78 79.26 233.25 39.59 257.79 49.98 268.18"/><polygon class="b" points="202.21 130.56 173.47 177.03 127 205.78 98.25 252.24 58.59 276.78 68.97 287.17 108.64 262.63 137.38 216.16 183.85 187.42 212.6 140.95 259.07 112.2 282.68 74.04 272.29 63.65 248.68 101.81 202.21 130.56"/><polygon class="b" points="267.68 120.8 221.2 149.55 192.46 196.02 145.99 224.77 117.25 271.24 77.58 295.77 87.96 306.16 127.63 281.62 156.38 235.16 202.85 206.41 231.59 159.94 278.06 131.19 301.67 93.03 291.28 82.64 267.68 120.8"/><rect class="c" x="359" y="53" width="104" height="55"/><rect class="c" x="51" y="403" width="21" height="21"/><rect class="c" x="86" y="453" width="13" height="13"/><rect class="c" x="92" y="403" width="19" height="19"/><rect class="c" x="38" y="288" width="13" height="13"/><rect class="c" x="68" y="341" width="7" height="7"/><rect class="c" x="46.5" y="91.5" width="21" height="21"/><rect class="c" x="87.5" y="91.5" width="19" height="19"/><rect class="c" x="63.5" y="29.5" width="7" height="7"/><rect class="c" x="421" y="239" width="9" height="9"/><rect class="c" x="280" y="54" width="8" height="8"/><rect class="c" x="428" y="438" width="32" height="32"/><rect class="c" x="431.48" y="406" width="25.04" height="25.04"/><rect class="c" x="428" y="367.04" width="32" height="32"/><rect class="c" x="433.57" y="337.13" width="20.87" height="20.87"/><polygon class="c" points="183.04 431.71 165.75 441.7 148.46 451.68 148.46 431.71 148.46 411.75 165.75 421.73 183.04 431.71"/><polygon class="c" points="207.29 431.71 190 441.7 172.71 451.68 172.71 431.71 172.71 411.75 190 421.73 207.29 431.71"/><polygon class="c" points="231.54 431.71 214.25 441.7 196.96 451.68 196.96 431.71 196.96 411.75 214.25 421.73 231.54 431.71"/><polygon class="c" points="255.79 431.71 238.5 441.7 221.21 451.68 221.21 431.71 221.21 411.75 238.5 421.73 255.79 431.71"/><polygon class="c" points="280.04 431.71 262.75 441.7 245.46 451.68 245.46 431.71 245.46 411.75 262.75 421.73 280.04 431.71"/><path class="d" d="M131.13,319.06s10.6,1.45,14,2.17,2.89,3.38,0,7.71-14,24.82-16.14,22.17,6.74-20.72,7.23-22.65-7.47-4.58-7.47-4.58Z"/><path class="e" d="M145.1,321.23c-.76-.16-1.89-.36-3.18-.57l-2.12,6.84-3.61,1c-.49,1.93-9.4,20-7.23,22.65s13.25-17.83,16.14-22.17S148.47,322,145.1,321.23Z"/><path class="f" d="M129.37,351.32c2.89.34,13-18.27,15.73-22.38s3.26-6.52.76-7.48Z"/><path class="d" d="M133.29,356.41,143.9,367s-8.92,11.56-11.33,16.38-1.2,9.64,2.89,8.19,14.94-19,15.9-22.89-1.44-3.13-3.85-7.46S142,350.14,142,350.14Z"/><path class="g" d="M151.6,270.88s1.45-15.42-2.65-18.79-39-5.3-39-5.3S104.87,254.5,94,271.12s-11.08,27.47-.72,35.42a138.2,138.2,0,0,0,18.79,12.28s1,14.22,4.82,19.52S128.48,354,128.48,354a29.24,29.24,0,0,0,7.71-3.37,12.71,12.71,0,0,0,4.09-4.1s-8.91-16.87-4.58-30.12S151.6,270.88,151.6,270.88Zm-36.37,35.17s-8.44-8.19-6.27-16.62,11.57-16.14,11.57-16.14Z"/><path class="h" d="M111.37,241.25l-3.85,8.67s10.6,11.56,21.44,15.42a134.86,134.86,0,0,0,22.64,5.54l4.34-9.88s-23.85-9.63-30.6-12.77S111.37,241.25,111.37,241.25Z"/><path class="e" d="M143.9,191.62s-7,8.91-14.7,16.86-11.08,8.43-11.08,8.43,0,10.36-1.21,13-4.33,7.71-2.65,7.71,19.52-13.49,25.3-22.88S147.27,189.69,143.9,191.62Z"/><path class="e" d="M159.07,185.83s-13,2.17-16.86,8.2-4.34,15.9-15.66,28.67-17.11,15.41-16.14,19.75,10.36,13.49,24.57,18.79,16.62,7,21.2,4.34,16.14-49.87,16.14-49.87,8.92,25.54,9.4,32.28,13.49,1.93,14.94-.72,1.44-11.81-8.68-30.84S175.22,191.62,169.67,188A13.81,13.81,0,0,0,159.07,185.83Z"/><path class="h" d="M153.05,205.59s8.67-9.64,24.82-9.15,32.28,7.7,38.06,1.92S221,176,203.64,171.14s-34.93-2.17-43.84,7.71S151.36,200.77,153.05,205.59Z"/><path class="i" d="M171.84,187.76s6.75-2.17,12.77,0,20.72,3.62,21.92-1.68-12.76-9.4-21.92-8-16.38,3.85-18.79,7S171.84,187.76,171.84,187.76Z"/><path class="j" d="M166.54,171.62a14.48,14.48,0,0,1-1.93,6.51c-1.92,3.37-8,14.45-7,15.9s12.28-6,14.21-6.27c0,0,1.21-10.36,5.06-14S171.12,168.25,166.54,171.62Z"/><path class="d" d="M174.25,129s-23.61-9.16-18.31-12.77,33,5.54,28.91.72-9.39-13-1.93-11.32,14,13.73,14,19,2.41,2.65,2.41-1.44,7.95-9.4,9.88.24-2.66,19.27-2.66,19.27,4.82-3.85,6-4.58-.24,4.58-3.37,8.19-5.06,9.16-8.68,14-13.49,12-21.92,14c-10.86,2.48-19.52,2.17-24.09-7.71-3.27-7,1-23.85,2.65-27.7s4.33-9.4,4.33-9.4Z"/><path class="g" d="M201.43,159c3-4.49,4.9-9.37,7.76-12.67,3.13-3.61,4.57-8.91,3.37-8.19s-6,4.58-6,4.58,4.58-9.64,2.66-19.27-9.88-4.34-9.88-.24-2.41,6.74-2.41,1.44-6.51-17.35-14-19-2.16,6.5,1.93,11.32-23.61-4.34-28.91-.72S174.25,129,174.25,129l-12.77.48s-.65,1.36-1.51,3.21c7.4.07,19.29,1,26.81,5.7,11.56,7.23,12.29,7.47,10.12,12.77C195.28,155.1,198.23,158.11,201.43,159Z"/><polygon class="e" points="195.61 143.91 210.27 152.82 208.23 155.98 195.19 150.51 195.61 143.91"/><path class="h" d="M190.71,135.45s9.85,5.86,9.6,7.53-2.93,9.79-4.43,10.05-9.9-2.21-9.9-2.21Z"/><path class="k" d="M147,149.94a37.91,37.91,0,0,0,7,3.61c3.38,1.21,3.38,1.21,5.79.48s3.37-1.44,6-.24,2.89,2.17,6.5,2.17,10.6,2.17,14-1.44,5.06-15.66,3.85-19.52-10.36-6.5-10.36-6.5v18.55Z"/><rect class="l" x="143.9" y="127.05" width="40.72" height="24.57" rx="7.66" transform="translate(10.8 -11.82) rotate(4.26)"/><path class="d" d="M196.54,156.43s10-9.32,13.91-5.61-.53,12.35-6.37,14.74-11.7-5-11.7-5"/><path class="g" d="M162.69,163.91c0,1.33-.76,2.41-1.69,2.41s-1.69-1.08-1.69-2.41.76-2.41,1.69-2.41S162.69,162.58,162.69,163.91Z"/><path class="h" d="M197.38,238.84s-13.25,2.89-17.35,7.95-2.89,11.56,2.17,13,21-3.38,22.17-8.19S201.72,238.84,197.38,238.84Z"/><path class="j" d="M196.94,307.16a7.42,7.42,0,0,1,2.89,6.26c-.24,4.1-2.17-2.41-2.89-3.13S196.94,307.16,196.94,307.16Z"/><path class="j" d="M193.76,300.58s4.09,4.58,4.09,9.88-1.44,7.47-2.17,6-.24-9.4-.72-10.84S193.76,300.58,193.76,300.58Z"/><path class="j" d="M187.5,294.25s6.75,2.41,7.71,11.8-2.65,11.57-3.61,10.61-1-5.55-1-11.09S187.5,294.25,187.5,294.25Z"/><path class="d" d="M199.07,251.85s-12.53.72-14.22,4.82-1.68,23.61-5.3,28.67-13.73,4.57-15.66,9.87,3.86,4.1,5.54,3.14,6.51-8.2,11.33-3.62,6,11.81,4.81,18.79,3.86,4.82,5.79-2.17-3.86-17.58-4.58-21.44.48-5.3,3.85-10.12S198.83,261.24,199.07,251.85Z"/><path class="m" d="M139.08,343.64s-.48,2.89-5.06,5.06-8,2.17-7.71,4.58,3.61,5.3,5.54,5.3,10.12-4.1,11.32-6,.48-3.61-.24-5.54S141.25,341,139.08,343.64Z"/><path class="e" d="M135.46,391.58c4.1-1.44,14.94-19,15.9-22.89.59-2.35-.08-3-1.23-4.13l-2.62,4.62L143.9,367s-8.92,11.56-11.33,16.38S131.37,393,135.46,391.58Z"/><path class="f" d="M151.45,366.35c-3.1,5.45-11.82,20.33-15.75,22.1-2,.92-3.42.67-4.35.08.14,2.43,1.57,4,4.11,3.05,4.1-1.44,14.94-19,15.9-22.89A4.22,4.22,0,0,0,151.45,366.35Z"/><line class="n" x1="112.09" y1="318.82" x2="115.23" y2="306.05"/><path class="o" d="M135.22,348.46s-9.88-16.39-8.19-29.64,14.7-49.14,14.7-49.14"/><line class="n" x1="120.53" y1="273.29" x2="112.58" y2="261"/><path class="o" d="M116.67,267s-19.51,21.44-17.59,30.59,14.7,13.73,14.7,13.73"/><path class="h" d="M114.5,216.91A22.76,22.76,0,0,1,112.58,229c-2.9,6.5-6,8.43-4.1,8.67s9.4-3.37,12-9.63,1-11.33-.49-11.81S116,215.71,114.5,216.91Z"/><path class="d" d="M103.9,184.15c-1.11,1.26-1.68,24.57-3.37,34.45s4.82,18.07,7,18.07,8.43-13,7.46-16.87-4.57-12.52-4.57-19.27a103.51,103.51,0,0,1,1-13.25S107.52,180.05,103.9,184.15Z"/><path class="d" d="M128.09,167.71c-3.07-.47-5.9,7.32-9.91,7.79a23.68,23.68,0,0,1-5.5.09c-.33-.46-.61-.88-.84-1.25-2.16-3.62-9.87-15.42-11.56-19.28s-4.58,0-5.06,4.1,4.58,10.6,5.54,12,2.41.25-2.65,3.38-9.39,8.67-4.58,12.53,14.7,1.44,14.7,1.44,3.87,2.8,7.55,1.67l0,.15c6.6-1.18,3.77-7.32,4.72-8.26s4.48-.71,6.37-3.31S131.15,168.18,128.09,167.71Z"/><path class="j" d="M91.58,181.1S87,185,87,189.29s3.62,5.3,4.34,2.89a64.25,64.25,0,0,0,1.21-8.67Z"/><path class="j" d="M97.08,175.78s-5.68,2.87-6.61,7.16,3.66,9.34,5.93,7.28-.32-3.39-.4-6.77S98.66,178,97.08,175.78Z"/><path class="j" d="M101.94,172.44s-6.26,2.41-6.5,6.26,4.57,12.05,7,10.12,0-7.95,0-10.84S103.63,175.33,101.94,172.44Z"/><circle class="p" cx="98.36" cy="154.52" r="24.79"/><circle class="p" cx="98.36" cy="154.52" r="17.55"/><path class="p" d="M104.63,154.52a6.27,6.27,0,1,0-6.27,6.26A6.27,6.27,0,0,0,104.63,154.52Z"/><path class="e" d="M286.82,166.66s-1.69-2.89-9.88-3.37-12.53,4.33-17.83-3.62-3.85-15.17-.48-17.34c0,0,1.2-1.21,1.2,1.93s6.51,9.15,7.23,9.63-7.95-9.88-4.33-20.48,6.5-20.72,19-23.37,25.3,2.17,26.74-9.15-3.37-27,21.92-31.08,21.69,8.43,21.69,18.55,8.19,13.73,18.31,5.3,25.78-9.64,35.41-.48,8.19,32,.24,38.55-14.69,4.33-17.34,14.45-8.68,19.28-21.44,11.33S367.05,129.32,355,125s-15.9,2.41-11.81,4.58,7.47,9.39,1.45,11.8-5.78-1-17.59-3.13-23.13-2.89-26.26,5.54.24,10.84-1.93,14.94S295,170,286.82,166.66Z"/><path class="q" d="M408,129.7c-6.91-.82-10.15-5.13-15.64-4-6.66,1.33-8,18.66-14.66,18.66S369,129,369,122.33s16.67,8,13.33,0S371,104.33,363.67,105s-18,7.33-26,0S351,97,347,92.33s-18.67.67-25.33,13.34-8,19.33-19.34,20.66-22-2-28,8,8.77,26.46,8.77,26.46l-.1,3.54c3,1,3.82,2.33,3.82,2.33,8.19,3.37,9.88-3.85,12-7.95s-1.2-6.5,1.93-14.94,14.46-7.71,26.26-5.54,11.57,5.54,17.59,3.13,2.65-9.63-1.45-11.8S343,120.64,355,125s-.48,24.58,12.29,32.53,18.79-1.21,21.44-11.33,9.39-8,17.34-14.45A11.21,11.21,0,0,0,408,129.7Z"/><path class="d" d="M303.68,170.27s5.54,16.39,5.3,19-17.34,15.18-17.34,15.18,12.52,5.54,26.26,1,18.79-14.94,18.79-14.94-6.78-.68-10.6-1.44c-3.62-.73-7.95-1.69-7.95-1.69l-1.45-14.46Z"/><path class="d" d="M327.05,136.55s-11.39-6.79-20.25-4.36c-7.18,2-9.15,5.41-15.16,19.29-5.4,12.45,7.71,24.82,23.37,25.78S335.48,160.16,327.05,136.55Z"/><polygon class="e" points="296.03 154.6 284.36 165.47 286.82 167.96 297.65 160.53 296.03 154.6"/><path class="h" d="M298.9,146s-7.86,7.18-7.32,8.65,4.51,8.37,5.92,8.32,8.6-3.87,8.6-3.87Z"/><path class="k" d="M341.38,151a35.19,35.19,0,0,1-5.68,4.6c-2.84,1.73-2.84,1.73-5.17,1.53s-3.34-.68-5.53.91-2.22,2.52-5.51,3.2-9.24,4-13,1.31-7.55-13.3-7.18-17,8.21-7.87,8.21-7.87L311,154.48Z"/><rect class="l" x="304.79" y="133.12" width="37.84" height="22.84" rx="7.12" transform="matrix(-0.96, 0.27, -0.27, -0.96, 674.66, 194.65)"/><path class="d" d="M297.39,168.49s-4.64,5.83-9.25,3.95-8.16-8.72-5-11.65,11,4.43,11,4.43"/><path class="r" d="M326.57,165.22s-4.58,5.05-7.47,0"/><path class="e" d="M374.27,310.25c-1.44-7.95-7.95-30.84-13.25-43.85s-7.23-17.1-7.23-17.1-15.17,11.08-33,13.73-18.55.72-18.55.72l1,4.58s7.23,45.53,7.47,59,4.09,36.37,7.71,46.73a107.13,107.13,0,0,0,6.74,15.9s3.38,11.81,7,16.39,10.36,7.95,12.53,4.09-11.56-14.69-14.94-24.81-1.93-26.26-1.93-26.26,12.77,10.12,12.77,5.78S330.18,351.45,329.7,350s-1-2.41,0-4.09,29.39-20.24,34.94-23.37S375.72,318.2,374.27,310.25Zm-20,4.34c-1.45,4.57-24.82,22.4-24.82,22.4s1.21-37.34,3.37-46.5S343.43,278,343.43,278C344.64,281.1,355.72,310,354.28,314.59Z"/><path class="q" d="M302,261.58s1.2,8.44,1.92,9.88,10.12,2.41,27.23-3.13,23.37-13.49,23.37-16.14,2.89-1-7,1.93-33.49,8.19-36.86,8.19A81.83,81.83,0,0,1,302,261.58Z"/><path class="s" d="M288,200.15s14.46,3.13,25.3-1,20.24-11.81,22.41-11.57,10.11,12.29,14.45,20.24,8.91,8.91,8.91,8.91-3.61,8.19-3.85,12.77,2.17,5.54-1.2,6-10.36-9.63-11.81-13.49c0,0,2.41,11.57,5.54,16.87s7.47,5.54,7,9.15-1.21,10.36-21.68,17.11-33.73,1.2-33.73-1.21.72-.72.24-8.67S295,231.47,295,231.47s1.69,19.51-.24,22.4-9.64-.48-11.57-6,3.62-33.25,1.93-39S283,200.63,288,200.15Z"/><path class="d" d="M273.81,244.72s7.95,13.49,12.29,15.9,7.22-.24,7-7.23-11.8-15.9-11.8-15.9Z"/><path class="d" d="M277.29,246.7a4.9,4.9,0,0,1-.62.38c-2.13,1.17-4.7.53-7,0,0,0-7.95,6.74-10.36,7s-1.44-1,1-3.14,6.26-6.5,6.26-6.5-9.15,3.37-11.8,3.13-3.62-2.41,1.68-3.85a69,69,0,0,0,11.33-4.58s-2.9-.48-3.86-.72-11.08-1.69-12.77-4.34,0-4.34,3.62-2.89,11.8,3.61,14.21,2.89a16.17,16.17,0,0,0,4.58-2.41,11.59,11.59,0,0,0-2.65-2.65c-1.69-1.21-7.71-4.58-8.92-8.19s.49-5.3,3.86-1.93,12.77,8.19,16.38,7.95,5.54-3.85,5.54-3.85,3.13-8.92,4.82-7.47-.24,8.19-2.41,12.28-3.85,4.82-4.58,6.51-1.2,5.06-3.61,7.23C280.34,243.09,279.14,245.38,277.29,246.7Z"/><path class="d" d="M359.09,216.77a24.34,24.34,0,0,0-6.74,10.84c-1.93,6.75-1.93,9.64,6.5,6.75s27.47-21,30.84-23.37,7.23-1.45,11.81-1.45,13.73-2.65,17.34-5.78,7.47-7,6.27-6.74a49.34,49.34,0,0,1-7.95,1.68c-4.34.49-10.36-1.2-10.36-1.2s6.74-5.78,7-7.47-1.44,0-4.09,1.45-9.16,4.09-12.05,5.3-6.5,3.61-8.19,6a13.7,13.7,0,0,1-3.13,3.37Z"/><path class="d" d="M395,204.49s4.58-3.14,7-1.69a39.12,39.12,0,0,0,4.82,2.41s9.15-10.84,8.91-7.71-3.61,8.67-6.26,9.88"/><path class="p" d="M373.07,162.56l27,11.81,51.8-21.2-28.19-10.36S371.38,162.08,373.07,162.56Z"/><polygon class="p" points="400.05 174.37 400.05 209.54 375.24 195.09 373.07 162.56 400.05 174.37"/><polygon class="p" points="400.05 209.54 450.89 186.66 451.85 153.17 400.05 174.37 400.05 209.54"/><path class="d" d="M330.42,388.07l7,11.08s-2.17-1.2-3.85,0a8,8,0,0,0-2.41,2.65l-6-11.81S328,391.68,330.42,388.07Z"/><polygon class="d" points="333.07 354.58 330.67 356.75 327.53 351.21 328.98 347.11 333.07 354.58"/><polygon class="t" points="327.18 213.62 313.59 249.61 340.08 244.18 327.18 213.62"/><circle class="t" cx="317.67" cy="229.23" r="10.87"/></svg>